Coordinates
version=1
nRows=19
nColumns=24
inDegrees=yes

Units are S.I. units (second, meters, Newtons, ...)
Angles are in degrees.

endheader
time	pelvis_tilt	pelvis_list	pelvis_rotation	pelvis_tx	pelvis_ty	pelvis_tz	hip_flexion_r	hip_adduction_r	hip_rotation_r	knee_angle_r	ankle_angle_r	subtalar_angle_r	mtp_angle_r	hip_flexion_l	hip_adduction_l	hip_rotation_l	knee_angle_l	ankle_angle_l	subtalar_angle_l	mtp_angle_l	lumbar_extension	lumbar_bending	lumbar_rotation
      8.07000000	     62.27327414	      5.91456697	      8.81384770	      0.76812802	      1.08198395	     -0.27238603	     -4.06648788	    -13.35387036	     -4.19922883	    -52.67365568	    -16.51649185	      1.21259291	     48.66030995	     15.21664317	    -14.12110435	     10.54039242	    -13.74908932	    -20.79551384	     16.34460170	    -31.24421412	      0.00000000	      0.00000000	      0.00000000
      8.08000000	     62.27640707	      5.90686652	      8.81877138	      0.76815010	      1.08198187	     -0.27243599	     -4.07344989	    -13.34856236	     -4.20855370	    -52.67719772	    -16.50847581	      1.21156190	     48.64672156	     15.20172010	    -14.13103747	     10.53425929	    -13.73251321	    -20.77760947	     16.36155890	    -31.27704065	      0.00000000	      0.00000000	      0.00000000
      8.09000000	     62.28115324	      5.90137619	      8.82291559	      0.76815921	      1.08197595	     -0.27248092	     -4.08217731	    -13.34398261	     -4.21412424	    -52.68124773	    -16.50034083	      1.20993279	     48.63060216	     15.18699809	    -14.13964940	     10.52187966	    -13.71676971	    -20.75848816	     16.37434784	    -31.30205056	      0.00000000	      0.00000000	      0.00000000
      8.10000000	     62.28753422	      5.89844594	      8.82666452	      0.76816148	      1.08196154	     -0.27251736	     -4.09234036	    -13.34011021	     -4.21629026	    -52.68605109	    -16.49238684	      1.20871331	     48.61337554	     15.17268990	    -14.14627165	     10.50294917	    -13.70316803	    -20.73803923	     16.38094557	    -31.32004912	      0.00000000	      0.00000000	      0.00000000
      8.11000000	     62.29524143	      5.89813273	      8.83062604	      0.76816322	      1.08194233	     -0.27254492	     -4.10354828	    -13.33715911	     -4.21585151	    -52.69158619	    -16.48471103	      1.20861453	     48.59649278	     15.15931662	    -14.15067683	     10.47821624	    -13.69236673	    -20.71642904	     16.38072847	    -31.33249259	      0.00000000	      0.00000000	      0.00000000
      8.12000000	     62.30357035	      5.89999585	      8.83520163	      0.76816394	      1.08192694	     -0.27256647	     -4.11533285	    -13.33548949	     -4.21389596	    -52.69762128	    -16.47730203	      1.20989968	     48.58129518	     15.14746746	    -14.15277083	     10.44961132	    -13.68453936	    -20.69450656	     16.37494551	    -31.34132742	      0.00000000	      0.00000000	      0.00000000
      8.13000000	     62.31151859	      5.90327879	      8.84038815	      0.76816238	      1.08191637	     -0.27258730	     -4.12703812	    -13.33535519	     -4.21161596	    -52.70382162	    -16.47017331	      1.21240367	     48.56891106	     15.13756308	    -14.15239289	     10.42004473	    -13.67970389	    -20.67383527	     16.36657923	    -31.34873974	      0.00000000	      0.00000000	      0.00000000
      8.14000000	     62.31805509	      5.90738385	      8.84591424	      0.76816142	      1.08190427	     -0.27261158	     -4.13788661	    -13.33678488	     -4.21005120	    -52.70988382	    -16.46347648	      1.21569263	     48.56018458	     15.12995677	    -14.14953097	     10.39288830	    -13.67790111	    -20.65628688	     16.35953143	    -31.35683343	      0.00000000	      0.00000000	      0.00000000
      8.15000000	     62.32240876	      5.91196975	      8.85153605	      0.76816234	      1.08189040	     -0.27263785	     -4.14718243	    -13.33962418	     -4.20984245	    -52.71562638	    -16.45751705	      1.21926302	     48.55563238	     15.12512367	    -14.14452024	     10.37123671	    -13.67915318	    -20.64339780	     16.35742388	    -31.36729261	      0.00000000	      0.00000000	      0.00000000
      8.16000000	     62.32426379	      5.91669117	      8.85722202	      0.76816203	      1.08188305	     -0.27266094	     -4.15444414	    -13.34352896	     -4.21116659	    -52.72100734	    -16.45264853	      1.22268340	     48.55542279	     15.12356387	    -14.13804383	     10.35719861	    -13.68329792	    -20.63579270	     16.36248098	    -31.38109121	      0.00000000	      0.00000000	      0.00000000
      8.17000000	     62.32378807	      5.92102717	      8.86307055	      0.76815866	      1.08188705	     -0.27267781	     -4.15946046	    -13.34784771	     -4.21389490	    -52.72609421	    -16.44911457	      1.22565235	     48.55937402	     15.12546565	    -14.13104863	     10.35146600	    -13.68985862	    -20.63292823	     16.37490627	    -31.39831327	      0.00000000	      0.00000000	      0.00000000
      8.18000000	     62.32150620	      5.92439572	      8.86905825	      0.76815477	      1.08189603	     -0.27269008	     -4.16237647	    -13.35166264	     -4.21777093	    -52.73099289	    -16.44693032	      1.22798655	     48.56697438	     15.13047943	    -14.12468945	     10.35328753	    -13.69806727	    -20.63327527	     16.39293831	    -31.41813513	      0.00000000	      0.00000000	      0.00000000
      8.19000000	     62.31812676	      5.92633991	      8.87486196	      0.76815388	      1.08190034	     -0.27270064	     -4.16374022	    -13.35415519	     -4.22243333	    -52.73573994	    -16.44585388	      1.22956761	     48.57743136	     15.13775638	    -14.12021317	     10.36081254	    -13.70704641	    -20.63487174	     16.41350437	    -31.43898771	      0.00000000	      0.00000000	      0.00000000
      8.20000000	     62.31440141	      5.92661409	      8.87985949	      0.76815645	      1.08189996	     -0.27270913	     -4.16433091	    -13.35496488	     -4.22738836	    -52.74023286	    -16.44545544	      1.23030171	     48.58975099	     15.14607072	    -14.11864474	     10.37163042	    -13.71602106	    -20.63599222	     16.43319088	    -31.45887538	      0.00000000	      0.00000000	      0.00000000
      8.21000000	     62.31107756	      5.92526090	      8.88327869	      0.76816117	      1.08190321	     -0.27271190	     -4.16481020	    -13.35421893	     -4.23208196	    -52.74429081	    -16.44526234	      1.23013636	     48.60284242	     15.15392366	    -14.12044716	     10.38331608	    -13.72440857	    -20.63563570	     16.44917434	    -31.47578058	      0.00000000	      0.00000000	      0.00000000
      8.22000000	     62.30883357	      5.92263631	      8.88441756	      0.76816771	      1.08191325	     -0.27270573	     -4.16559495	    -13.35232384	     -4.23605214	    -52.74787273	    -16.44492291	      1.22911644	     48.61563901	     15.15980452	    -14.12539569	     10.39384132	    -13.73173714	    -20.63364770	     16.45982265	    -31.48805355	      0.00000000	      0.00000000	      0.00000000
      8.23000000	     62.30812643	      5.91930913	      8.88292329	      0.76817644	      1.08192231	     -0.27269129	     -4.16701404	    -13.34976005	     -4.23905104	    -52.75123625	    -16.44429997	      1.22741741	     48.62722393	     15.16257803	    -14.13274536	     10.40179549	    -13.73751638	    -20.63048288	     16.46483790	    -31.49469781	      0.00000000	      0.00000000	      0.00000000
      8.24000000	     62.30918207	      5.91587137	      8.87901652	      0.76818806	      1.08192247	     -0.27267249	     -4.16935645	    -13.34697190	     -4.24109523	    -52.75480426	    -16.44345042	      1.22532299	     48.63694016	     15.16175960	    -14.14152952	     10.40645755	    -13.74118421	    -20.62677830	     16.46499415	    -31.49550366	      0.00000000	      0.00000000	      0.00000000
      8.25000000	     62.31208711	      5.91273996	      8.87341514	      0.76820226	      1.08191650	     -0.27265248	     -4.17279540	    -13.34434099	     -4.24246289	    -52.75889960	    -16.44252642	      1.22316288	     48.64445793	     15.15761111	    -14.15080054	     10.40778786	    -13.74214042	    -20.62297449	     16.46164649	    -31.49102659	      0.00000000	      0.00000000	      0.00000000
